<svg xmlns="http://www.w3.org/2000/svg" width="256" height="256" viewBox="0 0 256 256"><path fill="#d6c9e3" d="M.5.5h255v255H.5z"/><rect width="196.4" height="184" x="29.8" y="39" fill="#fff" rx="49.8"/><path fill="#b98268" d="M176.4 42a46.9 46.9 0 0 1 46.8 46.8v84.4a46.9 46.9 0 0 1-46.8 46.8H79.6a46.9 46.9 0 0 1-46.8-46.8V88.8A46.9 46.9 0 0 1 79.6 42h96.8m0-6H79.6a52.7 52.7 0 0 0-52.8 52.8v84.4A52.7 52.7 0 0 0 79.6 226h96.8a52.7 52.7 0 0 0 52.8-52.8V88.8A52.7 52.7 0 0 0 176.4 36z"/><path fill="#b98268" d="M155.1 163.4c-.3-.8-2 1.4-2.7 1.6s-2.7 1-3.3 2.2c-10.4 6.5-29.5 9-43.6 4.8-3.6-1.1-6.8-3.1-10.2-3.2-2-1.9-4.7-2.9-7-4.3a24.3 24.3 0 0 0-3.3-3.8c-1.4-2.4-1.9-5.6-1.5-9.7 1.8-2.2 4.6-3.3 7.5-4.3 1.3.9 4.6.1 5.9 1.1s4.2 0 4.3 2.1-2.6 1.4-4.3 1.1-3.3-1.3-4.9-1.1-.9 2-2.1 2.1-1.7 1.2-1.6 2.7c.8 5.3 5.7 6.5 9.1 9.2 3.2 0 4.9 1.6 7.6 2.2 1.1.8 2.4.7 3.7 1.1s.2.5.6.5a51.5 51.5 0 0 0 9.2 1.1h2.7c2-.4 5.3 0 9.1 0s4.1-1.7 7.1-1.6c4.4-2.5 9.3-4.7 13.4-7.6 1.4-1.5 2.5-3.2 4.3-4.3a5.6 5.6 0 0 1 1.6-3.8 28.6 28.6 0 0 0-.5-12.4c-1.4-1.7-2.2-3.8-3.8-5.4s-3.1-3-3.8-5.3a19.9 19.9 0 0 1-7-5.4c-1.3.1-2.6.1-3.2-.6s-2.6-2-3.3-3.7h-3.7c-1.3-1.8-4.2-2-5.4-3.8-2 .7-3-.6-4.4-1.1l-6.9-2.7c-1.1-.4-2.6-.6-3.8-1s-1.3-1.1-1.6-1.2-3.8-.9-6-1.5l-1.5-1.2c-1.4-.3-1.9 0-3.3-.5s-1.2-.7-2.1-1c-.5-2.6.4-3.9 1-5.4 6-.8 10.5-3.3 16.7-3.8 4.2-2.6 12.1-1.6 16.7-3.7 5.1-.4 10-.8 14.1-2.3 2.7.6 5.6-.4 8.6-.4 1.1-.2 1.9.4 3.2.4s4.8-.6 7-.4a48.1 48.1 0 0 1 4.9.4 42.3 42.3 0 0 1 4.2.6c.4.1.9 1 1.2 1.1s1.2-.2 1.5 0 2.5 3.1 3.8 4.3c-.2 1.6 1.1 1.9.6 3.8s-1 1.5-.6 3.2c-1.3-.1-1.4 1.5-2.1 2.2s-1.2.2-1.7.5a4.7 4.7 0 0 1-1 1 37.3 37.3 0 0 1-4.8 3.3c-.8.8-3.8 1-3.8-.6s.9-1.9 2.1-2.1.8-2.1 2.1-2.1 1.5-1.5 2.7-1.7 1.5-1.4 1.7-2.7c-1.2-4.3-6.9-4.2-10.2-6.4-1.2-.4-.8 1-1.7 1s-1.3-.5-2.1-.5c-7-1-16.2.6-23.7 1.6s-12 2-17.9 2.7a83.6 83.6 0 0 1-11.7 3.3c0 1.3 1.7.8 2.6 1.5s3.4 1.3 4.9 1.7c3.2 2.2 7 3.2 10.8 4.9s6.8 3.4 10.7 4.2c.6 1.7 2.6 2 3.8 2.7s.4 1 .5 1.1 1.2-.2 1.7 0 .3 1 .5 1a36.7 36.7 0 0 1 7.6 5.4c1.6 1 2.5 3 4.8 3.3 0 3.5 3.6 3.2 3.2 7.1a1.7 1.7 0 0 0 1.6 1 1.8 1.8 0 0 0 1.1 1.7c.2 3.8 1.5 7.8 1.1 11.7a30.7 30.7 0 0 1-2.2 7.1c0 3.2-2.3 4.7-4.8 7z"/></svg>
